<svg viewBox="0 0 178.36 49.37474452554745" xmlns="http://www.w3.org/2000/svg" data-name="Capa 2" id="Capa_2" style="max-height: 500px" width="178.36" height="49.37474452554745">
  <defs>
    <style>
      .cls-1 {
        fill: #1d3915;
      }
    </style>
  </defs>
  <g data-name="Capa 1" id="Capa_1-2">
    <g>
      <polygon points="0 46.39 22.02 46.39 22.02 37.63 8.76 37.63 8.76 26.8 22.02 26.8 22.02 18.04 8.76 18.04 8.76 9.66 22.02 9.66 22.02 .9 0 .9 0 46.39" class="cls-1"/>
      <path d="M29.3,11.63c-2.08,3.59-3.12,7.59-3.12,12.02s1.04,8.43,3.12,12.02c2.08,3.59,4.93,6.42,8.54,8.5,3.61,2.08,7.62,3.12,12.05,3.12v-8.89c-2.79,0-5.31-.64-7.57-1.93-2.26-1.29-4.03-3.06-5.32-5.31-1.29-2.26-1.93-4.76-1.93-7.51s.64-5.25,1.93-7.51c1.29-2.26,3.06-4.03,5.32-5.32,2.26-1.29,4.78-1.93,7.57-1.93V0c-4.42,0-8.44,1.04-12.05,3.12-3.61,2.08-6.45,4.92-8.54,8.5Z" class="cls-1"/>
      <path d="M87.64,3.12c-3.61-2.08-7.6-3.12-11.98-3.12s-8.44,1.04-12.05,3.12c-3.61,2.08-6.45,4.92-8.54,8.5-2.08,3.59-3.12,7.59-3.12,12.02s1.04,8.43,3.12,12.02c2.08,3.59,4.93,6.42,8.54,8.5,3.61,2.08,7.62,3.12,12.05,3.12s8.38-1.04,11.98-3.12c3.61-2.08,6.45-4.93,8.54-8.54,2.08-3.61,3.12-7.6,3.12-11.98s-1.04-8.38-3.12-11.98c-2.08-3.61-4.93-6.45-8.54-8.54ZM75.66,38.55c-2.64,0-5.11-.68-7.27-1.88l7.99-4.84,7.26,4.41c-2.32,1.46-5.05,2.31-7.98,2.31ZM87.74,32.44l-9.97-6.05h0s-.1-.06-.1-.06l-1.28-.78h0s-1.98-1.19-1.98-1.19v-4.29h3.6v3.86h5.37v-9.23h-14.33v12.69l2.16,1.3-7.16,4.34c-2.13-2.59-3.4-5.91-3.4-9.52,0-8.3,6.73-15.03,15.03-15.03s15.03,6.73,15.03,15.03c0,3.35-1.11,6.43-2.96,8.93Z" class="cls-1"/>
      <path d="M126.3,19.2c.99-1.76,1.48-3.69,1.48-5.8,0-2.32-.56-4.43-1.68-6.35-1.12-1.91-2.63-3.41-4.54-4.51-1.91-1.1-4.03-1.64-6.35-1.64h-11.02v45.49h11.02c2.32,0,4.43-.56,6.35-1.68,1.91-1.12,3.42-2.64,4.54-4.57,1.12-1.93,1.68-4.08,1.68-6.44,0-2.1-.49-4.04-1.48-5.8-.99-1.76-2.38-3.2-4.19-4.32,1.8-1.16,3.2-2.62,4.19-4.38ZM118.44,35.31c-.43.77-1.03,1.39-1.8,1.84-.77.45-1.63.68-2.58.68h-1.1v-10.12h1.1c.94,0,1.8.22,2.58.64.77.43,1.37,1.03,1.8,1.8.43.77.64,1.63.64,2.58s-.22,1.8-.64,2.58ZM118.44,17.01c-.43.82-1.03,1.46-1.8,1.93-.77.47-1.63.71-2.58.71h-1.1v-10.31h1.1c.94,0,1.8.22,2.58.64.77.43,1.37,1.03,1.8,1.8.43.77.64,1.61.64,2.51,0,.99-.22,1.89-.64,2.71Z" class="cls-1"/>
      <path d="M175.23,35.63c2.08-3.61,3.12-7.6,3.12-11.98s-1.04-8.38-3.12-11.98c-2.08-3.61-4.93-6.45-8.54-8.54-3.61-2.08-7.6-3.12-11.98-3.12s-8.44,1.04-12.05,3.12c-3.61,2.08-6.45,4.92-8.54,8.5-2.08,3.59-3.12,7.59-3.12,12.02s1.04,8.43,3.12,12.02c2.08,3.59,4.93,6.42,8.54,8.5,3.61,2.08,7.62,3.12,12.05,3.12s8.38-1.04,11.98-3.12c.79-.46,1.53-.95,2.25-1.48l7.35,6.15.13-.13v-9.99l-2.03-1.75c.29-.44.57-.88.84-1.34ZM167.59,31.11l-12.17-10.49-5.22,6.38,11.59,9.7c-2.12,1.12-4.47,1.71-7.08,1.71-2.79,0-5.31-.64-7.57-1.93-2.26-1.29-4.03-3.06-5.32-5.31-1.29-2.26-1.93-4.76-1.93-7.51s.64-5.25,1.93-7.51c1.29-2.26,3.06-4.03,5.32-5.32,2.26-1.29,4.78-1.93,7.57-1.93s5.3.64,7.54,1.93c2.23,1.29,4,3.06,5.32,5.32,1.31,2.26,1.97,4.76,1.97,7.51s-.65,5.22-1.94,7.46Z" class="cls-1"/>
    </g>
  </g>
</svg>